<?xml version="1.0" standalone="no"?>
<!DOCTYPE svg PUBLIC "-//W3C//DTD SVG 20010904//EN"
 "http://www.w3.org/TR/2001/REC-SVG-20010904/DTD/svg10.dtd">
<svg version="1.0" xmlns="http://www.w3.org/2000/svg"
 width="355.000000pt" height="354.000000pt" viewBox="0 0 355.000000 354.000000"
 preserveAspectRatio="xMidYMid meet">

<g transform="translate(0.000000,354.000000) scale(0.100000,-0.100000)"
fill="#000000" stroke="none">
<path d="M1298 2892 c-438 -110 -496 -130 -440 -146 9 -3 110 -27 223 -55 204
-49 207 -50 262 -35 105 27 252 44 387 44 185 0 198 -16 18 -23 -149 -5 -249
-22 -380 -63 l-78 -25 0 -71 c0 -68 1 -70 23 -65 370 84 564 84 935 0 22 -5
22 -4 22 90 l0 96 38 10 c20 5 63 17 96 25 l59 15 -5 -210 -5 -209 27 0 27 0
-5 214 -5 213 74 17 c121 27 149 36 149 50 0 9 -143 49 -465 130 -256 64 -473
115 -482 115 -10 -1 -224 -53 -475 -117z"/>
<path d="M1186 2394 c-24 -25 -26 -33 -26 -119 0 -83 -4 -105 -40 -206 -56
-158 -52 -226 15 -315 l25 -33 0 -264 0 -264 25 -27 24 -26 569 0 569 0 27 26
26 27 0 264 c0 262 0 265 23 296 32 43 57 110 57 151 0 18 -18 87 -40 152 -35
103 -40 131 -40 207 0 88 -9 121 -39 144 -12 9 -153 12 -582 13 l-566 0 -27
-26z m1145 -24 c17 -9 19 -22 19 -99 0 -76 5 -103 40 -205 54 -159 52 -215
-13 -292 l-27 -32 0 -275 c0 -241 -2 -276 -16 -281 -9 -3 -260 -6 -558 -6
-408 0 -545 3 -554 12 -9 9 -12 86 -12 283 0 265 -1 272 -21 291 -32 28 -59
93 -59 141 0 24 16 87 37 145 29 84 37 122 42 208 6 100 7 104 31 111 42 12
1069 10 1091 -1z"/>
<path d="M1280 2255 l0 -45 500 0 500 0 0 45 0 45 -500 0 -500 0 0 -45z"/>
<path d="M1265 2128 c-36 -98 -55 -154 -55 -160 0 -5 256 -8 570 -8 314 0 570
1 570 3 0 1 -14 40 -30 87 l-29 85 -511 3 c-403 2 -512 0 -515 -10z"/>
<path d="M1212 1849 c34 -62 86 -92 157 -92 48 0 64 4 95 28 21 16 46 46 57
67 l19 38 -175 0 -176 0 23 -41z"/>
<path d="M1630 1850 c30 -59 82 -90 151 -90 69 0 113 27 147 88 l23 42 -170 0
-171 0 20 -40z"/>
<path d="M2042 1849 c34 -61 80 -89 149 -89 42 0 65 6 90 23 32 21 79 80 79
98 0 5 -77 9 -171 9 l-170 0 23 -41z"/>
<path d="M1540 1764 c-58 -59 -101 -76 -186 -72 l-74 3 0 -222 0 -223 195 0
195 0 0 158 c0 110 4 162 12 170 17 17 399 17 416 0 8 -8 12 -60 12 -170 l0
-158 85 0 85 0 0 224 0 223 -68 -5 c-78 -5 -124 12 -191 73 l-37 34 -33 -35
c-50 -52 -100 -74 -171 -74 -71 0 -119 21 -171 74 l-35 36 -34 -36z"/>
<path d="M1740 1385 l0 -135 150 0 150 0 0 135 0 135 -150 0 -150 0 0 -135z
m250 0 l0 -85 -105 0 -105 0 0 78 c0 43 3 82 7 85 3 4 51 7 105 7 l98 0 0 -85z"/>
<path d="M831 1003 c-68 -34 -107 -134 -99 -252 9 -125 66 -201 151 -201 71 0
135 99 69 108 -18 3 -23 -2 -28 -28 -7 -33 -33 -53 -57 -44 -66 25 -63 359 3
394 24 13 26 13 44 -6 11 -11 16 -35 16 -82 0 -89 7 -112 34 -112 34 0 46 20
46 77 0 70 -21 118 -62 143 -40 24 -72 25 -117 3z"/>
<path d="M1511 987 c-5 -13 -13 -82 -18 -153 l-8 -129 -24 65 c-73 197 -112
253 -149 217 -43 -44 -41 -373 4 -417 14 -13 17 -13 34 7 13 17 20 47 24 115
3 51 7 109 9 128 2 32 5 27 35 -51 38 -102 66 -141 96 -137 34 5 55 64 67 185
15 138 6 187 -34 191 -21 3 -29 -2 -36 -21z"/>
<path d="M1969 988 c-15 -28 -6 -337 11 -368 6 -12 19 -20 28 -18 23 4 30 64
31 249 1 125 -1 148 -15 153 -28 11 -43 6 -55 -16z"/>
<path d="M2310 995 c-8 -9 -17 -71 -23 -150 l-10 -135 -52 130 c-59 145 -69
162 -99 158 -39 -6 -50 -51 -49 -208 0 -154 14 -222 45 -228 29 -5 40 36 46
165 3 68 8 120 12 116 4 -4 17 -37 30 -73 13 -36 34 -82 47 -103 20 -31 29
-38 51 -35 23 3 30 11 45 57 23 69 35 268 18 299 -14 25 -43 29 -61 7z"/>
<path d="M2749 988 c-15 -28 -6 -337 11 -368 6 -12 19 -20 28 -18 23 4 30 64
31 249 1 125 -1 148 -15 153 -28 11 -43 6 -55 -16z"/>
<path d="M1633 990 c-40 -17 -27 -38 32 -51 l55 -12 1 -131 c1 -206 18 -277
61 -261 20 8 36 113 45 278 l6 117 38 6 c52 9 78 28 61 46 -16 16 -265 23
-299 8z"/>
<path d="M1112 957 c-67 -71 -95 -306 -40 -340 27 -17 48 9 48 59 0 46 19 62
60 49 16 -5 20 -15 20 -56 0 -43 3 -50 18 -47 32 6 38 165 10 275 -20 78 -73
106 -116 60z m79 -58 c4 -13 7 -52 8 -86 l1 -63 -40 0 c-39 0 -40 1 -40 33 1
43 18 118 32 134 15 19 31 11 39 -18z"/>
<path d="M2567 956 c-39 -42 -62 -129 -62 -234 0 -72 3 -95 15 -102 20 -13 44
-8 47 10 9 72 15 89 33 95 35 11 55 -10 55 -57 0 -36 3 -43 20 -43 18 0 20 8
23 90 2 50 0 113 -3 142 -13 103 -78 153 -128 99z m73 -40 c6 -8 14 -49 17
-90 l6 -76 -43 0 -43 0 6 63 c5 66 21 117 36 117 4 0 14 -6 21 -14z"/>
</g>
</svg>
