<?xml version="1.0" standalone="no"?>
<!DOCTYPE svg PUBLIC "-//W3C//DTD SVG 20010904//EN"
 "http://www.w3.org/TR/2001/REC-SVG-20010904/DTD/svg10.dtd">
<svg version="1.0" xmlns="http://www.w3.org/2000/svg"
 width="638.000000pt" height="686.000000pt" viewBox="0 0 638.000000 686.000000"
 preserveAspectRatio="xMidYMid meet">

<g transform="translate(0.000000,686.000000) scale(0.100000,-0.100000)"
fill="#000000" stroke="none">
<path d="M3140 5641 c-19 -5 -55 -13 -80 -19 -25 -5 -116 -28 -202 -51 -87
-23 -229 -59 -315 -82 -87 -23 -174 -45 -193 -49 -72 -17 -1050 -259 -1170
-290 -142 -36 -257 -66 -288 -76 -7 -2 -12 -14 -10 -26 3 -26 -10 -22 348
-107 118 -28 240 -58 270 -66 30 -8 84 -21 120 -30 36 -8 115 -29 175 -46 151
-42 212 -46 305 -20 71 20 209 50 330 71 194 34 529 55 740 46 269 -11 436
-34 360 -50 -14 -2 -104 -8 -200 -11 -369 -13 -603 -42 -900 -111 -120 -29
-121 -29 -290 -85 -69 -23 -128 -47 -132 -53 -4 -6 -8 -77 -8 -157 0 -180 0
-181 98 -151 208 64 412 103 720 137 159 18 668 21 806 5 365 -43 500 -68 774
-146 55 -16 64 -17 72 -4 5 8 10 115 10 236 0 180 3 224 14 233 31 26 427 125
463 116 15 -3 24 -15 28 -38 4 -17 4 -202 1 -410 -4 -322 -7 -382 -20 -402
-20 -30 -23 -174 -4 -193 16 -16 90 -16 106 0 7 7 12 43 12 91 0 64 -4 84 -20
104 -19 25 -20 41 -20 444 l0 419 25 16 c13 8 70 27 127 40 57 13 167 39 246
58 151 35 188 54 161 81 -8 8 -247 73 -539 145 -972 242 -1246 311 -1585 400
-126 33 -269 46 -335 31z"/>
<path d="M1875 3988 c-90 -11 -147 -56 -174 -137 -7 -21 -11 -113 -11 -240 l0
-206 -35 -100 c-20 -55 -52 -147 -71 -205 -19 -58 -51 -146 -70 -197 -27 -74
-34 -106 -34 -165 0 -142 54 -287 153 -415 l52 -68 5 -665 c4 -483 8 -672 17
-692 19 -42 76 -93 120 -106 59 -18 2758 -17 2817 0 52 16 122 86 136 138 7
25 10 266 10 681 l-1 643 31 40 c92 123 141 221 160 324 18 99 13 163 -24 269
-18 54 -47 141 -65 193 -17 52 -47 140 -67 195 l-37 100 -7 240 c-7 262 -10
278 -70 329 -17 14 -48 30 -68 36 -41 12 -2679 20 -2767 8z m2793 -101 c36
-38 42 -80 42 -277 0 -102 5 -201 10 -220 18 -67 40 -136 91 -285 114 -335
121 -368 94 -472 -32 -124 -74 -209 -140 -281 l-50 -55 -2 -81 c-2 -45 -4
-351 -6 -681 -2 -570 -3 -602 -21 -632 -11 -17 -30 -36 -43 -42 -17 -8 -434
-11 -1409 -11 l-1386 0 -29 29 -29 29 0 682 0 681 -55 58 c-30 32 -55 61 -55
66 0 4 -10 22 -23 39 -42 55 -97 229 -97 303 0 32 110 385 140 448 5 11 19 48
30 83 11 34 27 79 35 100 10 27 15 97 18 260 l4 223 28 29 29 30 1401 0 1402
0 21 -23z"/>
<path d="M1999 3686 c-5 -6 -9 -52 -9 -103 0 -82 2 -93 18 -93 9 0 568 0 1241
0 968 0 1227 3 1233 13 13 21 10 177 -4 182 -26 10 -2469 10 -2479 1z"/>
<path d="M1954 3272 c-6 -4 -14 -23 -16 -42 -3 -19 -11 -51 -18 -70 -7 -19
-15 -42 -18 -50 -3 -8 -22 -64 -42 -123 -24 -71 -33 -110 -26 -112 6 -2 416
-6 911 -9 495 -3 1127 -9 1404 -12 l503 -7 -7 24 c-31 103 -41 134 -67 209
-17 47 -33 101 -37 120 -4 19 -13 45 -19 56 l-11 21 -1273 1 c-700 1 -1278 -2
-1284 -6z"/>
<path d="M1790 2636 c0 -21 43 -99 79 -145 47 -59 129 -110 212 -132 92 -24
138 -24 219 2 81 25 134 56 183 107 43 44 118 163 111 174 -3 5 -185 8 -405 8
-341 0 -399 -2 -399 -14z"/>
<path d="M2859 2593 c35 -69 109 -149 173 -187 57 -33 177 -59 243 -53 120 12
233 75 288 160 60 92 77 124 70 130 -3 4 -186 7 -405 7 l-398 0 29 -57z"/>
<path d="M3903 2642 c-21 -14 34 -109 99 -173 66 -65 120 -93 212 -110 74 -14
163 -2 243 32 74 31 192 158 208 222 l7 27 -319 0 c-176 0 -347 2 -379 6 -32
3 -65 1 -71 -4z"/>
<path d="M2647 2335 c-87 -96 -214 -175 -280 -175 -13 0 -28 -5 -33 -10 -17
-17 -163 -23 -224 -10 -30 6 -70 14 -87 17 l-33 5 0 -534 c0 -402 3 -537 12
-546 9 -9 127 -12 470 -12 l458 0 6 24 c3 13 4 178 2 367 -3 189 -1 358 4 375
4 17 20 41 34 55 l26 24 520 0 520 0 24 -30 24 -30 0 -392 c0 -215 3 -394 8
-396 4 -2 94 -1 200 1 l192 4 0 545 0 546 -52 -8 c-74 -11 -254 -10 -308 2
-94 20 -236 107 -305 187 -27 31 -52 56 -56 56 -3 0 -42 -35 -85 -78 -81 -81
-186 -149 -253 -163 -20 -4 -56 -13 -81 -19 -54 -14 -226 -8 -243 9 -6 6 -22
11 -36 11 -61 1 -193 84 -286 179 -32 33 -64 61 -70 60 -5 0 -36 -29 -68 -64z"/>
<path d="M3152 1393 l3 -318 360 0 360 0 3 318 2 317 -365 0 -365 0 2 -317z
m624 203 c20 -29 20 -393 0 -422 -13 -18 -30 -19 -260 -22 -236 -3 -246 -2
-266 18 -19 19 -20 32 -20 213 0 173 2 196 18 210 21 19 105 24 350 23 150 -1
165 -3 178 -20z"/>
</g>
</svg>
